<svg width="600" height="400" viewBox="0 0 600 400" fill="none" xmlns="http://www.w3.org/2000/svg">
  <rect width="600" height="400" rx="16" fill="#0D9488" />
  <rect x="20" y="20" width="560" height="360" rx="12" fill="#F0FDFA" />
  
  <!-- Dashboard Header -->
  <rect x="40" y="40" width="520" height="60" rx="8" fill="#CCFBF1" />
  <circle cx="70" cy="70" r="15" fill="#0D9488" />
  <rect x="100" y="60" width="120" height="16" rx="4" fill="#0D9488" />
  <rect x="100" y="82" width="80" height="8" rx="4" fill="#14B8A6" />
  <rect x="460" y="60" width="80" height="30" rx="6" fill="#0D9488" />
  
  <!-- Dashboard Sidebar -->
  <rect x="40" y="120" width="150" height="260" rx="8" fill="#CCFBF1" />
  <rect x="60" y="140" width="110" height="16" rx="4" fill="#0D9488" />
  <rect x="60" y="170" width="110" height="16" rx="4" fill="#0891B2" />
  <rect x="60" y="200" width="110" height="16" rx="4" fill="#0891B2" />
  <rect x="60" y="230" width="110" height="16" rx="4" fill="#0891B2" />
  <rect x="60" y="260" width="110" height="16" rx="4" fill="#0891B2" />
  <rect x="60" y="290" width="110" height="16" rx="4" fill="#0891B2" />
  <rect x="60" y="320" width="110" height="16" rx="4" fill="#0891B2" />
  
  <!-- Dashboard Content -->
  <rect x="210" y="120" width="350" height="120" rx="8" fill="#CCFBF1" />
  <rect x="230" y="140" width="200" height="20" rx="4" fill="#0D9488" />
  <rect x="230" y="170" width="310" height="10" rx="4" fill="#14B8A6" />
  <rect x="230" y="190" width="280" height="10" rx="4" fill="#14B8A6" />
  <rect x="230" y="210" width="310" height="10" rx="4" fill="#14B8A6" />
  
  <!-- Dashboard Stats -->
  <rect x="210" y="260" width="160" height="120" rx="8" fill="#CCFBF1" />
  <rect x="230" y="280" width="120" height="20" rx="4" fill="#0D9488" />
  <circle cx="290" cy="330" r="30" fill="#0D9488" />
  <circle cx="290" cy="330" r="20" fill="#CCFBF1" />
  
  <!-- Dashboard Calendar -->
  <rect x="390" y="260" width="170" height="120" rx="8" fill="#CCFBF1" />
  <rect x="410" y="280" width="130" height="20" rx="4" fill="#0D9488" />
  <rect x="410" y="310" width="30" height="20" rx="4" fill="#14B8A6" />
  <rect x="450" y="310" width="30" height="20" rx="4" fill="#14B8A6" />
  <rect x="490" y="310" width="30" height="20" rx="4" fill="#14B8A6" />
  <rect x="410" y="340" width="30" height="20" rx="4" fill="#14B8A6" />
  <rect x="450" y="340" width="30" height="20" rx="4" fill="#0D9488" />
  <rect x="490" y="340" width="30" height="20" rx="4" fill="#14B8A6" />
</svg> 